<svg viewBox="0 0 60 60" fill="none" xmlns="http://www.w3.org/2000/svg">
<path d="M0 16C0 7.16344 7.16344 0 16 0H44C52.8366 0 60 7.16344 60 16V44C60 52.8366 52.8366 60 44 60H16C7.16344 60 0 52.8366 0 44V16Z" fill="#F09730"/>
<path d="M42.9528 25.1537C43.5598 21.0949 40.4697 18.9131 36.2441 17.4576L37.6149 11.9595L34.2681 11.1255L32.9336 16.4789C32.0537 16.2594 31.1502 16.0526 30.2521 15.8476L31.5962 10.459L28.2514 9.625L26.8799 15.1213C26.1518 14.9555 25.4366 14.7917 24.7428 14.6191L24.7467 14.6018L20.1313 13.4492L19.241 17.0239C19.241 17.0239 21.7241 17.5931 21.6717 17.6281C23.027 17.9664 23.2721 18.8636 23.2314 19.5747L21.6699 25.8383C21.7633 25.862 21.8843 25.8963 22.0179 25.95C21.9062 25.9223 21.7874 25.892 21.6641 25.8625L19.4755 34.6369C19.3098 35.0487 18.8894 35.6666 17.9419 35.432C17.9754 35.4806 15.5093 34.8249 15.5093 34.8249L13.8477 38.656L18.2031 39.7418C19.0133 39.945 19.8073 40.1576 20.5893 40.3575L19.2043 45.9187L22.5473 46.7526L23.9188 41.2505C24.8321 41.4984 25.7184 41.7271 26.586 41.9427L25.2191 47.4189L28.5661 48.2528L29.951 42.7021C35.6581 43.7822 39.9494 43.3467 41.7557 38.1846C43.2111 34.0285 41.6832 31.6313 38.6807 30.0681C40.8676 29.5637 42.5148 28.1254 42.954 25.1542L42.9529 25.1534L42.9528 25.1537ZM35.306 35.8765C34.2716 40.0326 27.2741 37.786 25.0053 37.2226L26.8432 29.855C29.1118 30.4214 36.3869 31.5422 35.3061 35.8765H35.306ZM36.341 25.0935C35.3975 28.8739 29.5733 26.9533 27.684 26.4824L29.3503 19.8004C31.2396 20.2713 37.3239 21.1503 36.3413 25.0935H36.341Z" fill="white"/>
</svg>
