<svg viewBox="0 0 60 60" fill="none" xmlns="http://www.w3.org/2000/svg">
<path d="M0 18C0 8.05888 8.05888 0 18 0H42C51.9411 0 60 8.05888 60 18V42C60 51.9411 51.9411 60 42 60H18C8.05888 60 0 51.9411 0 42V18Z" fill="#BBC1D2"/>
<path d="M30.4936 8L30.2051 8.97991V37.4122L30.4936 37.7L43.6912 29.8987L30.4936 8Z" fill="#61688F"/>
<path d="M30.491 8L17.293 29.8987L30.491 37.7V23.8998V8Z" fill="#8992B1"/>
<path d="M30.4936 40.1996L30.3311 40.3978V50.5258L30.4936 51.0005L43.6994 32.4023L30.4936 40.1996Z" fill="#61688F"/>
<path d="M30.491 51.0005V40.1996L17.293 32.4023L30.491 51.0005Z" fill="#8992B1"/>
<path d="M30.4893 37.6987L43.6869 29.8974L30.4893 23.8984V37.6987Z" fill="#454975"/>
<path d="M17.293 29.8974L30.491 37.6987V23.8984L17.293 29.8974Z" fill="#61688F"/>
</svg>
